<svg xmlns="http://www.w3.org/2000/svg" xmlns:xlink="http://www.w3.org/1999/xlink" xmlns:lucid="lucid" width="1280" height="640"><g transform="translate(0 0)" lucid:page-tab-id="0_0"><path d="M0 0h1280v640H0z" fill="#fff"/><path d="M160 66a6 6 0 0 1 6-6h148a6 6 0 0 1 6 6v188a6 6 0 0 1-6 6H166a6 6 0 0 1-6-6z" stroke="#3a414a" stroke-width="3" fill="#fff"/><use xlink:href="#a" transform="matrix(1,0,0,1,172,72) translate(39.99544270833333 12.950303819444446)"/><use xlink:href="#b" transform="matrix(1,0,0,1,172,72) translate(86.66970486111111 12.950303819444446)"/><path d="M960 66a6 6 0 0 1 6-6h148a6 6 0 0 1 6 6v188a6 6 0 0 1-6 6H966a6 6 0 0 1-6-6z" stroke="#3a414a" stroke-width="3" fill="#fff"/><use xlink:href="#a" transform="matrix(1,0,0,1,972,72) translate(39.99544270833333 12.950303819444446)"/><use xlink:href="#c" transform="matrix(1,0,0,1,972,72) translate(86.66970486111111 12.950303819444446)"/><path d="M701.9 566.5c0 6.63-26.87 12-60 12-33.15 0-60-5.37-60-12v-96c0-6.63 26.85-12 60-12 33.13 0 60 5.37 60 12z" stroke="#3a414a" stroke-width="3" fill="#fff"/><path d="M701.9 470.5c0 6.63-26.87 12-60 12-33.15 0-60-5.37-60-12" stroke="#3a414a" stroke-width="3" fill="none"/><use xlink:href="#d" transform="matrix(1,0,0,1,586.8896348015999,487.50009698174836) translate(10.992838541666657 71.47914041666667)"/><use xlink:href="#e" transform="matrix(1,0,0,1,586.8896348015999,487.50009698174836) translate(67.001953125 71.47914041666667)"/><use xlink:href="#f" transform="matrix(1,0,0,1,586.8896348015999,487.50009698174836) translate(55.004999999999995 85.54164041666668)"/><path d="M240 262v72a6 6 0 0 0 6 6h314.88" stroke="#3a414a" fill="none"/><path d="M240.5 262h-1v-.5h1zM561.38 340l.03.5h-.53v-1h.56z" stroke="#3a414a" stroke-width=".05" fill="#3a414a"/><path d="M1040 262v71.38a6 6 0 0 1-6 6H717.8" stroke="#3a414a" fill="none"/><path d="M1040.5 262h-1v-.5h1zM717.8 339.88h-.68l.33-1h.35z" stroke="#3a414a" stroke-width=".05" fill="#3a414a"/><path d="M641.37 396.64v59.88" stroke="#3a414a" fill="none"/><path d="M641.87 396.43v.22h-1v-.8zM641.87 457l-1 .03v-.53h1zM281.25 120.5H271v-1h10.25zm30.75 0h-20.5v-1H312zm30.75 0h-20.5v-1h20.5zm30.75 0H353v-1h20.5zm30.75 0h-20.5v-1h20.5zm30.75 0h-20.5v-1H435zm30.75 0h-20.5v-1h20.5zm30.75 0H476v-1h20.5zm30.75 0h-20.5v-1h20.5zm30.75 0h-20.5v-1H558zm12.65 0h-2.4v-1h2.4zm171.85 0H722v-1h20.5zm30.75 0h-20.5v-1h20.5zm30.75 0h-20.5v-1H804zm30.75 0h-20.5v-1h20.5zm30.75 0H845v-1h20.5zm30.75 0h-20.5v-1h20.5zm30.75 0h-20.5v-1H927zm30.75 0h-20.5v-1h20.5zm30.75 0H968v-1h20.5zm20.5 0h-10.25v-1H1009zm-297.25 0h-2.4v-1h2.4z" stroke="#3a414a" stroke-width=".05" fill="#3a414a"/><path d="M271 120.5h-.55l.05-.48-.02-.52h.53z" fill="#3a414a"/><path d="M271.04 120.53h-.62l.06-.5-.02-.56h.58zm-.53-1l.03.5-.05.44h.5v-.94z" stroke="#3a414a" stroke-width=".05" fill="#3a414a"/><path d="M1009.5 119.98l.02.52h-.53v-1h.55z" fill="#3a414a"/><path d="M1009.52 119.98l.02.55h-.58v-1.06h.62zm-.5-.45v.94h.47l-.03-.5.05-.44z" stroke="#3a414a" stroke-width=".05" fill="#3a414a"/><use xlink:href="#g" transform="matrix(1,0,0,1,570.6553819444445,110.62934027777777) translate(0 14.791666666666668)"/><use xlink:href="#h" transform="matrix(1,0,0,1,570.6553819444445,110.62934027777777) translate(10.668402777777779 14.791666666666668)"/><use xlink:href="#i" transform="matrix(1,0,0,1,570.6553819444445,110.62934027777777) translate(74.67881944444446 14.791666666666668)"/><path d="M1062.07 231v201.5a6 6 0 0 1-6 6H677.8a6 6 0 0 0-6 6v36.92" stroke="#e81313" fill="none"/><path d="M1062.57 231h-1v-.5h1z" stroke="#e81313" stroke-width=".05" fill="#e81313"/><path d="M671.8 496.18l-4.64-14.26h9.27z" stroke="#e81313" fill="#e81313"/><path d="M652 497.3v-52.8a6 6 0 0 0-6-6H224.1a6 6 0 0 1-6-6V246.88" stroke="#008a0e" fill="none"/><path d="M652.5 497.8h-1v-.5h1z" stroke="#008a0e" stroke-width=".05" fill="#008a0e"/><path d="M218.12 232.12l4.64 14.26h-9.27z" stroke="#008a0e" fill="#008a0e"/><path d="M259.9 231v181.5a6 6 0 0 0 6 6h339.65a6 6 0 0 1 6 6v56.92" stroke="#e81313" fill="none"/><path d="M260.4 231h-1v-.5h1z" stroke="#e81313" stroke-width=".05" fill="#e81313"/><path d="M611.55 496.18l-4.63-14.26h9.27z" stroke="#e81313" fill="#e81313"/><path d="M630.47 497.3v-72.8a6 6 0 0 1 6-6h377.8a6 6 0 0 0 6-6V246.88" stroke="#008a0e" fill="none"/><path d="M630.97 497.8h-1v-.5h1z" stroke="#008a0e" stroke-width=".05" fill="#008a0e"/><path d="M1020.28 232.12l4.63 14.26h-9.26z" stroke="#008a0e" fill="#008a0e"/><path d="M240 173.12v-16.24" stroke="#1071e5" fill="none"/><path d="M240 187.88l-4.63-14.26h9.26zM240 142.12l4.63 14.26h-9.26z" stroke="#1071e5" fill="#1071e5"/><path d="M1040 173.12v-16.24" stroke="#1071e5" fill="none"/><path d="M1040 187.88l-4.63-14.26h9.27zM1040 142.12l4.63 14.26h-9.27z" stroke="#1071e5" fill="#1071e5"/><path d="M260 379.92a6 6 0 0 1 6-6h288a6 6 0 0 1 6 6v40.16a6 6 0 0 1-6 6H266a6 6 0 0 1-6-6z" stroke="#000" stroke-opacity="0" fill="#fff" fill-opacity="0"/><use xlink:href="#j" transform="matrix(1,0,0,1,265,378.916015625) translate(4.977213541666629 19.162760416666668)"/><use xlink:href="#k" transform="matrix(1,0,0,1,265,378.916015625) translate(60.98632812499997 19.162760416666668)"/><use xlink:href="#l" transform="matrix(1,0,0,1,265,378.916015625) translate(116.99544270833331 19.162760416666668)"/><use xlink:href="#m" transform="matrix(1,0,0,1,265,378.916015625) translate(140.99934895833331 19.162760416666668)"/><use xlink:href="#n" transform="matrix(1,0,0,1,265,378.916015625) translate(181.005859375 19.162760416666668)"/><use xlink:href="#o" transform="matrix(1,0,0,1,265,378.916015625) translate(221.01236979166669 19.162760416666668)"/><use xlink:href="#p" transform="matrix(1,0,0,1,265,378.916015625) translate(237.01497395833334 19.162760416666668)"/><use xlink:href="#q" transform="matrix(1,0,0,1,265,378.916015625) translate(48.984374999999986 33.21875)"/><use xlink:href="#r" transform="matrix(1,0,0,1,265,378.916015625) translate(112.99479166666666 33.21875)"/><use xlink:href="#s" transform="matrix(1,0,0,1,265,378.916015625) translate(153.00130208333331 33.21875)"/><use xlink:href="#t" transform="matrix(1,0,0,1,265,378.916015625) translate(185.00651041666669 33.21875)"/><use xlink:href="#u" transform="matrix(1,0,0,1,265,378.916015625) translate(217.01171875 33.21875)"/><path d="M260 439.9a6 6 0 0 1 6-6h288a6 6 0 0 1 6 6v40.2a6 6 0 0 1-6 6H266a6 6 0 0 1-6-6z" stroke="#000" stroke-opacity="0" fill="#fff" fill-opacity="0"/><use xlink:href="#v" transform="matrix(1,0,0,1,265,438.9127604166667) translate(32.98177083333333 19.162760416666668)"/><use xlink:href="#w" transform="matrix(1,0,0,1,265,438.9127604166667) translate(80.98958333333334 19.162760416666668)"/><use xlink:href="#x" transform="matrix(1,0,0,1,265,438.9127604166667) translate(136.99869791666669 19.162760416666668)"/><use xlink:href="#y" transform="matrix(1,0,0,1,265,438.9127604166667) translate(177.00520833333331 19.162760416666668)"/><use xlink:href="#z" transform="matrix(1,0,0,1,265,438.9127604166667) translate(217.01171875 19.162760416666668)"/><use xlink:href="#A" transform="matrix(1,0,0,1,265,438.9127604166667) translate(241.015625 19.162760416666668)"/><use xlink:href="#B" transform="matrix(1,0,0,1,265,438.9127604166667) translate(4.977213541666686 33.21875)"/><use xlink:href="#C" transform="matrix(1,0,0,1,265,438.9127604166667) translate(84.99023437500001 33.21875)"/><use xlink:href="#D" transform="matrix(1,0,0,1,265,438.9127604166667) translate(116.99544270833334 33.21875)"/><use xlink:href="#E" transform="matrix(1,0,0,1,265,438.9127604166667) translate(165.00325520833334 33.21875)"/><use xlink:href="#F" transform="matrix(1,0,0,1,265,438.9127604166667) translate(205.009765625 33.21875)"/><use xlink:href="#G" transform="matrix(1,0,0,1,265,438.9127604166667) translate(229.013671875 33.21875)"/><use xlink:href="#H" transform="matrix(1,0,0,1,265,438.9127604166667) translate(261.0188802083333 33.21875)"/><path d="M320 126a6 6 0 0 1 6-6h188a6 6 0 0 1 6 6v51.33a6 6 0 0 1-6 6H326a6 6 0 0 1-6-6z" stroke="#000" stroke-opacity="0" fill="#fff" fill-opacity="0"/><g><use xlink:href="#I" transform="matrix(1,0,0,1,325.0109107815649,125) translate(15.653754340277771 23.067708333333336)"/><use xlink:href="#J" transform="matrix(1,0,0,1,325.0109107815649,125) translate(71.66286892361111 23.067708333333336)"/><use xlink:href="#K" transform="matrix(1,0,0,1,325.0109107815649,125) translate(15.653754340277771 39.46636284722222)"/><use xlink:href="#L" transform="matrix(1,0,0,1,325.0109107815649,125) translate(71.66286892361111 39.46636284722222)"/></g><path d="M760 126a6 6 0 0 1 6-6h188a6 6 0 0 1 6 6v51.33a6 6 0 0 1-6 6H766a6 6 0 0 1-6-6z" stroke="#000" stroke-opacity="0" fill="#fff" fill-opacity="0"/><g><use xlink:href="#I" transform="matrix(1,0,0,1,765.0109107815649,125) translate(15.653754340277771 23.067708333333336)"/><use xlink:href="#M" transform="matrix(1,0,0,1,765.0109107815649,125) translate(71.66286892361111 23.067708333333336)"/><use xlink:href="#K" transform="matrix(1,0,0,1,765.0109107815649,125) translate(15.653754340277771 39.46636284722222)"/><use xlink:href="#N" transform="matrix(1,0,0,1,765.0109107815649,125) translate(71.66286892361111 39.46636284722222)"/></g><path d="M270 286a6 6 0 0 1 6-6h88a6 6 0 0 1 6 6v28a6 6 0 0 1-6 6h-88a6 6 0 0 1-6-6z" stroke="#000" stroke-opacity="0" fill="#fff" fill-opacity="0"/><g><use xlink:href="#O" transform="matrix(1,0,0,1,275,285) translate(0 12.942708333333334)"/><use xlink:href="#P" transform="matrix(1,0,0,1,275,285) translate(56.00911458333334 12.942708333333334)"/><use xlink:href="#Q" transform="matrix(1,0,0,1,275,285) translate(0 29.34136284722222)"/><use xlink:href="#R" transform="matrix(1,0,0,1,275,285) translate(56.00911458333334 29.34136284722222)"/></g><path d="M900 286a6 6 0 0 1 6-6h88a6 6 0 0 1 6 6v28a6 6 0 0 1-6 6h-88a6 6 0 0 1-6-6z" stroke="#000" stroke-opacity="0" fill="#fff" fill-opacity="0"/><g><use xlink:href="#O" transform="matrix(1,0,0,1,905,285) translate(24.6560329861111 12.942708333333334)"/><use xlink:href="#S" transform="matrix(1,0,0,1,905,285) translate(80.66514756944444 12.942708333333334)"/><use xlink:href="#Q" transform="matrix(1,0,0,1,905,285) translate(24.6560329861111 29.34136284722222)"/><use xlink:href="#T" transform="matrix(1,0,0,1,905,285) translate(80.66514756944444 29.34136284722222)"/></g><path d="M276 190c13.25 0 24 8.95 24 20s-10.75 20-24 20h-72c-13.25 0-24-8.95-24-20s10.75-20 24-20z" stroke="#3a414a" fill="#fcfcca"/><g><use xlink:href="#U" transform="matrix(1,0,0,1,185,195) translate(28.328993055555554 20.416666666666668)"/></g><path d="M1076 190c13.26 0 24 8.95 24 20s-10.74 20-24 20h-72c-13.25 0-24-8.95-24-20s10.75-20 24-20z" stroke="#3a414a" fill="#fcfcca"/><g><use xlink:href="#U" transform="matrix(1,0,0,1,985,195) translate(28.328993055555554 20.416666666666668)"/></g><path d="M264 100c3.3 0 6 8.95 6 20s-2.7 20-6 20h-48c-3.3 0-6-8.95-6-20s2.7-20 6-20z" stroke="#3a414a" fill-opacity="0"/><path d="M264 140c-3.3 0-6-8.95-6-20s2.7-20 6-20" stroke="#3a414a" fill="none"/><g><use xlink:href="#V" transform="matrix(1,0,0,1,215,105.00000000000001) translate(2.997395833333332 20.416666666666668)"/></g><path d="M1064 100c3.3 0 6 8.95 6 20s-2.7 20-6 20h-48c-3.3 0-6-8.95-6-20s2.7-20 6-20z" stroke="#3a414a" fill-opacity="0"/><path d="M1064 140c-3.3 0-6-8.95-6-20s2.7-20 6-20" stroke="#3a414a" fill="none"/><g><use xlink:href="#V" transform="matrix(1,0,0,1,1015,105.00000000000001) translate(2.997395833333332 20.416666666666668)"/></g><path d="M585.88 364c-13.26 0-24-10.75-24-24 0-10.6 6.5-19.55 16.58-22.82C577.88 286 617.88 280 633.88 292c8-18 48-12 48 6 24-6 48 18 32 48 16 24 0 54-32 42-8 15.6-40 15.6-48 0-16 12-48 6-48-24z" stroke="#3a414a" fill="#fff"/><g><use xlink:href="#W" transform="matrix(1,0,0,1,566.878724020035,285) translate(29.83073784722221 50.76280381944444)"/><use xlink:href="#X" transform="matrix(1,0,0,1,566.878724020035,285) translate(41.333016493055545 67.16905381944444)"/></g><path d="M601.9 504.3a6 6 0 0 1 6-6h28a6 6 0 0 1 6 6v28.4a6 6 0 0 1-6 6h-28a6 6 0 0 1-6-6z" stroke="#3a414a" fill="#fff"/><g><use xlink:href="#Y" transform="matrix(1,0,0,1,613.8896348015999,510.3007697248039) translate(-8.002604166666668 12.565755208333332)"/></g><path d="M641.9 504.3a6 6 0 0 1 6-6h28a6 6 0 0 1 6 6v28.4a6 6 0 0 1-6 6h-28a6 6 0 0 1-6-6z" stroke="#3a414a" fill="#fff"/><g><use xlink:href="#Z" transform="matrix(1,0,0,1,653.8896348015999,510.3007697248039) translate(-8.002604166666668 12.565755208333332)"/></g><defs><path fill="#3a414a" d="M796 0v-574H433V0H138v-1349h295v531h363v-531h295V0H796" id="aa"/><path fill="#3a414a" d="M616-1102c361 0 521 202 521 560 0 354-171 562-527 562C259 20 92-192 92-542c0-351 169-560 524-560zm-9 930c200-2 236-165 236-370 0-199-27-367-223-367-195 0-233 146-233 367 0 129 18 223 55 282s92 88 165 88" id="ab"/><path fill="#3a414a" d="M622-916c-112 2-200 14-200 111 0 90 89 101 168 121 234 58 514 77 514 368C1104-4 751 54 434 5 267-21 161-112 121-270l247-37c24 111 113 145 252 141 114-3 226-12 226-124 0-101-103-113-192-134-225-54-490-76-490-351 0-247 201-328 458-328 245 0 413 88 457 292l-249 26c-16-98-92-133-208-131" id="ac"/><path fill="#3a414a" d="M711 13c-250 0-386-99-385-349l2-556H161v-190h181l88-282h176v282h385v190H606v530c-10 130 45 186 174 184 91-2 176-11 255-27v186C933-1 833 13 711 13" id="ad"/><g id="a"><use transform="matrix(0.007595486111111112,0,0,0.007595486111111112,0,0)" xlink:href="#aa"/><use transform="matrix(0.007595486111111112,0,0,0.007595486111111112,9.334852430555557,0)" xlink:href="#ab"/><use transform="matrix(0.007595486111111112,0,0,0.007595486111111112,18.669704861111114,0)" xlink:href="#ac"/><use transform="matrix(0.007595486111111112,0,0,0.007595486111111112,28.00455729166667,0)" xlink:href="#ad"/></g><path fill="#3a414a" d="M138-1120c207-4 339-93 415-229h266v1140h323V0H149v-209h389v-891c-70 121-216 187-400 194v-214" id="ae"/><use transform="matrix(0.007595486111111112,0,0,0.007595486111111112,0,0)" xlink:href="#ae" id="b"/><path fill="#3a414a" d="M135-968c34-256 187-402 480-402 217 0 371 75 441 220 45 93 40 219-8 308-114 212-348 323-508 488-38 39-66 80-85 123h654V0H123v-195c112-245 321-399 515-560 57-48 107-96 142-157 14-26 22-53 22-80-1-104-73-156-185-154-131 2-181 74-199 194" id="af"/><use transform="matrix(0.007595486111111112,0,0,0.007595486111111112,0,0)" xlink:href="#af" id="c"/><path fill="#3a414a" d="M609-1161c-125 0-218 36-218 153 0 149 166 161 290 196 235 67 484 129 484 421 0 300-239 408-554 411C302 23 93-114 38-367l285-37c32 128 131 205 296 203 143-2 259-31 259-173 0-164-197-172-333-212-218-64-441-131-441-405 0-276 231-379 511-379 299 0 463 114 513 363l-286 29c-28-115-96-183-233-183" id="ag"/><path fill="#3a414a" d="M424-1484c-2 206 5 424-8 618h4c67-145 160-234 348-236 251-3 335 167 336 416V0H824v-621c0-150-23-276-173-270-163 7-227 142-227 312V0H143v-1484h281" id="ah"/><path fill="#3a414a" d="M775-193C708-75 621 20 439 20 226 20 106-93 106-306c0-251 170-341 417-346l223-4c4-143-12-264-148-264-103 0-141 58-150 153l-293-14c37-219 194-321 455-321 263 0 418 130 417 390v392c1 84 5 161 89 160 21 0 42-2 62-6v152c-57 15-108 27-180 26-145 0-202-73-217-205h-6zm-256 17c168 0 234-139 227-325-166 4-347-25-347 173 0 94 33 152 120 152" id="ai"/><path fill="#3a414a" d="M875-1102c70 0 148 7 206 17v237c-110-17-267-37-359 15-123 69-192 207-192 395V0H250c-10-367 32-789-52-1082h271c19 69 36 149 46 228h4c52-151 151-250 356-248" id="aj"/><path fill="#3a414a" d="M1113-274C1038-96 884 20 626 20c-352 0-526-209-526-566 0-358 185-556 530-556 358 0 496 251 499 615H395c5 180 68 319 245 319 102 0 186-45 208-129zM857-663c-6-177-128-307-315-247-94 30-141 121-145 247h460" id="ak"/><path fill="#3a414a" d="M802-909c-3-189-2-383-2-575h281v1248c-1 83 4 168 8 236H817c-9-50-14-117-15-176h-4C735-49 651 20 482 20 191 20 97-238 97-539c0-243 66-432 221-519 50-28 108-42 175-42 162 2 253 78 309 191zm-70 658c91-113 93-462 2-584-46-61-145-100-224-53-96 56-119 190-120 349 0 123 17 214 52 275 46 82 130 115 222 74 25-12 46-33 68-61" id="al"/><g id="d"><use transform="matrix(0.006510416666666667,0,0,0.006510416666666667,0,0)" xlink:href="#ag"/><use transform="matrix(0.006510416666666667,0,0,0.006510416666666667,8.001302083333334,0)" xlink:href="#ah"/><use transform="matrix(0.006510416666666667,0,0,0.006510416666666667,16.002604166666668,0)" xlink:href="#ai"/><use transform="matrix(0.006510416666666667,0,0,0.006510416666666667,24.00390625,0)" xlink:href="#aj"/><use transform="matrix(0.006510416666666667,0,0,0.006510416666666667,32.005208333333336,0)" xlink:href="#ak"/><use transform="matrix(0.006510416666666667,0,0,0.006510416666666667,40.00651041666667,0)" xlink:href="#al"/></g><path fill="#3a414a" d="M496-1349c439 0 656 222 653 664C1146-265 969 0 556 0H135v-1349h361zm36 1121c245-7 319-187 320-457 1-273-91-439-361-436h-61v893h102" id="am"/><path fill="#3a414a" d="M794-190h353V0H118v-190h395v-702H223v-190h571v892zM513-1277v-207h281v207H513" id="an"/><path fill="#3a414a" d="M864 0L575-490l-121 84V0H173v-1484h281v850l386-448h302L762-660 1171 0H864" id="ao"/><g id="e"><use transform="matrix(0.006510416666666667,0,0,0.006510416666666667,0,0)" xlink:href="#am"/><use transform="matrix(0.006510416666666667,0,0,0.006510416666666667,8.001302083333334,0)" xlink:href="#an"/><use transform="matrix(0.006510416666666667,0,0,0.006510416666666667,16.002604166666668,0)" xlink:href="#ac"/><use transform="matrix(0.006510416666666667,0,0,0.006510416666666667,24.00390625,0)" xlink:href="#ao"/></g><path fill="#333" d="M698-1104c312 3 392 244 392 558 0 315-82 566-392 566-169 0-277-65-331-184h-5c8 188 2 394 4 589H185V-858c0-76-1-156-6-224h175c6 52 9 120 10 178h4c58-122 150-202 330-200zm-49 991c225 0 255-203 255-433 0-225-32-419-253-419-236 0-285 192-285 441 0 237 53 411 283 411" id="ap"/><path fill="#333" d="M615-1102c343 0 484 203 482 560-1 347-147 562-488 562-336 0-475-219-479-562-4-349 156-560 485-560zm-8 989c240 0 301-180 301-429 0-245-55-427-290-427-236 0-299 181-299 427 0 243 61 429 288 429" id="aq"/><path fill="#333" d="M873-819c-18-114-119-146-250-146-163 0-245 50-245 151 0 151 170 148 294 185 182 54 388 94 388 320 0 240-189 325-439 329-245 4-410-69-454-268l159-31c24 133 136 168 295 165 144-2 270-31 270-171 0-164-195-160-331-202-167-52-350-87-350-299 0-218 173-315 413-313 220 2 373 77 412 260" id="ar"/><path fill="#333" d="M617-1102c355 0 481 238 477 599H322c5 222 84 388 301 388 144 0 244-59 284-166l158 45C1002-72 854 20 623 20c-342 0-490-220-490-568 0-346 151-554 484-554zm291 461c-18-192-90-328-289-328-194 0-287 128-295 328h584" id="as"/><g id="h"><use transform="matrix(0.008680555555555556,0,0,0.008680555555555556,0,0)" xlink:href="#ap"/><use transform="matrix(0.008680555555555556,0,0,0.008680555555555556,10.668402777777779,0)" xlink:href="#aq"/><use transform="matrix(0.008680555555555556,0,0,0.008680555555555556,21.336805555555557,0)" xlink:href="#ar"/><use transform="matrix(0.008680555555555556,0,0,0.008680555555555556,32.005208333333336,0)" xlink:href="#ar"/><use transform="matrix(0.008680555555555556,0,0,0.008680555555555556,42.673611111111114,0)" xlink:href="#as"/></g><path fill="#333" d="M682 16c-209 0-323-80-324-285v-671H190v-142h170l58-282h120v282h432v142H538v652c2 114 60 155 182 155 106 0 209-16 297-34v137C921-4 806 16 682 16" id="at"/><path fill="#333" d="M528 20c-247 0-343-132-343-381v-721h180v686c-4 177 45 284 224 277 194-8 279-136 279-336v-627h181c3 360-6 732 6 1082H885c-4-54-7-126-8-185h-3C809-64 714 20 528 20" id="au"/><path fill="#333" d="M706-1102c241 0 344 136 343 381V0H868v-695c1-168-57-273-220-268-190 6-283 138-283 336V0H185c-3-360 6-732-6-1082h170c4 54 7 126 8 185h3c63-121 164-204 346-205" id="av"/><path fill="#333" d="M736-142h380V0H134v-142h422v-1200H267v-142h469v1342" id="aw"/><g id="i"><use transform="matrix(0.008680555555555556,0,0,0.008680555555555556,0,0)" xlink:href="#at"/><use transform="matrix(0.008680555555555556,0,0,0.008680555555555556,10.668402777777779,0)" xlink:href="#au"/><use transform="matrix(0.008680555555555556,0,0,0.008680555555555556,21.336805555555557,0)" xlink:href="#av"/><use transform="matrix(0.008680555555555556,0,0,0.008680555555555556,32.005208333333336,0)" xlink:href="#av"/><use transform="matrix(0.008680555555555556,0,0,0.008680555555555556,42.673611111111114,0)" xlink:href="#as"/><use transform="matrix(0.008680555555555556,0,0,0.008680555555555556,53.34201388888889,0)" xlink:href="#aw"/></g><path fill="#e81313" d="M1018 0H814c-67-224-138-444-200-673C552-442 476-224 407 0H204L21-1082h178c43 310 105 601 126 933 54-225 128-425 193-638h193c63 212 134 415 185 638 22-336 90-622 136-933h176" id="ax"/><path fill="#e81313" d="M839-1102c70 0 148 7 206 17v167c-112-18-268-36-363 15-129 69-208 203-208 395V0H294c-10-367 32-789-52-1082h171c21 75 41 161 48 250h5c67-152 152-270 373-270" id="ay"/><path fill="#e81313" d="M745-142h380V0H143v-142h422v-798H246v-142h499v940zM545-1292v-192h200v192H545" id="az"/><path fill="#e81313" d="M682 16c-209 0-323-80-324-285v-671H190v-142h170l58-282h120v282h432v142H538v652c2 114 60 155 182 155 106 0 209-16 297-34v137C921-4 806 16 682 16" id="aA"/><path fill="#e81313" d="M617-1102c355 0 481 238 477 599H322c5 222 84 388 301 388 144 0 244-59 284-166l158 45C1002-72 854 20 623 20c-342 0-490-220-490-568 0-346 151-554 484-554zm291 461c-18-192-90-328-289-328-194 0-287 128-295 328h584" id="aB"/><path fill="#e81313" d="M873-819c-18-114-119-146-250-146-163 0-245 50-245 151 0 151 170 148 294 185 182 54 388 94 388 320 0 240-189 325-439 329-245 4-410-69-454-268l159-31c24 133 136 168 295 165 144-2 270-31 270-171 0-164-195-160-331-202-167-52-350-87-350-299 0-218 173-315 413-313 220 2 373 77 412 260" id="aC"/><g id="j"><use transform="matrix(0.006510416666666667,0,0,0.006510416666666667,0,0)" xlink:href="#ax"/><use transform="matrix(0.006510416666666667,0,0,0.006510416666666667,8.001302083333334,0)" xlink:href="#ay"/><use transform="matrix(0.006510416666666667,0,0,0.006510416666666667,16.002604166666668,0)" xlink:href="#az"/><use transform="matrix(0.006510416666666667,0,0,0.006510416666666667,24.00390625,0)" xlink:href="#aA"/><use transform="matrix(0.006510416666666667,0,0,0.006510416666666667,32.005208333333336,0)" xlink:href="#aB"/><use transform="matrix(0.006510416666666667,0,0,0.006510416666666667,40.00651041666667,0)" xlink:href="#aC"/></g><path fill="#e81313" d="M698-1104c312 3 392 244 392 558 0 315-82 566-392 566-169 0-277-65-331-184h-5c8 188 2 394 4 589H185V-858c0-76-1-156-6-224h175c6 52 9 120 10 178h4c58-122 150-202 330-200zm-49 991c225 0 255-203 255-433 0-225-32-419-253-419-236 0-285 192-285 441 0 237 53 411 283 411" id="aD"/><path fill="#e81313" d="M1000-272c3 95 12 159 101 161 21 0 41-3 59-7V-6c-44 10-86 16-139 16-141 2-191-84-197-217h-6C748-76 648 20 446 20c-207 0-318-120-318-322 0-266 194-348 454-354l236-4c12-191-40-305-222-305-140 0-220 47-232 172l-188-17c33-204 181-292 423-292 255 0 401 118 401 364v466zm-683-27c0 109 63 184 175 182 166-3 259-96 306-217 24-65 20-120 20-200-232 7-501-28-501 235" id="aE"/><path fill="#e81313" d="M631 20c-350 0-501-215-501-562 0-355 162-560 502-560 250 0 399 118 446 323l-192 14c-23-124-109-196-262-196-242 0-305 171-305 415 1 245 61 427 304 427 151 0 248-77 267-215l190 12C1039-107 883 20 631 20" id="aF"/><path fill="#e81313" d="M914 0L548-499l-132 98V0H236v-1484h180v927l475-525h211L663-617 1125 0H914" id="aG"/><g id="k"><use transform="matrix(0.006510416666666667,0,0,0.006510416666666667,0,0)" xlink:href="#aD"/><use transform="matrix(0.006510416666666667,0,0,0.006510416666666667,8.001302083333334,0)" xlink:href="#aE"/><use transform="matrix(0.006510416666666667,0,0,0.006510416666666667,16.002604166666668,0)" xlink:href="#aF"/><use transform="matrix(0.006510416666666667,0,0,0.006510416666666667,24.00390625,0)" xlink:href="#aG"/><use transform="matrix(0.006510416666666667,0,0,0.006510416666666667,32.005208333333336,0)" xlink:href="#aB"/><use transform="matrix(0.006510416666666667,0,0,0.006510416666666667,40.00651041666667,0)" xlink:href="#aA"/></g><path fill="#e81313" d="M615-1102c343 0 484 203 482 560-1 347-147 562-488 562-336 0-475-219-479-562-4-349 156-560 485-560zm-8 989c240 0 301-180 301-429 0-245-55-427-290-427-236 0-299 181-299 427 0 243 61 429 288 429" id="aH"/><g id="l"><use transform="matrix(0.006510416666666667,0,0,0.006510416666666667,0,0)" xlink:href="#aA"/><use transform="matrix(0.006510416666666667,0,0,0.006510416666666667,8.001302083333334,0)" xlink:href="#aH"/></g><path fill="#e81313" d="M1028 0H784c-56-191-119-378-170-573C562-377 495-191 437 0H194L11-1082h228c32 239 67 472 95 714 4 40 7 80 7 119 53-195 119-378 177-568h193c56 190 120 371 169 568-1-79 11-158 21-226l91-607h226" id="aI"/><path fill="#e81313" d="M429-1484c1 190-1 388 0 572 54-116 155-191 317-191 300 0 386 257 386 563 0 241-73 429-226 518-49 28-106 42-169 42-162 0-251-81-306-196h-4c-1 59-5 127-15 176H140c4-67 9-153 8-236v-1248h281zm66 648c-93 114-92 466 1 585 35 45 77 79 142 79 64 0 112-31 148-92 69-115 68-440-2-561-39-68-131-111-221-70-25 11-46 32-68 59" id="aJ"/><path fill="#e81313" d="M794-190h353V0H118v-190h395v-1104H223v-190h571v1294" id="aK"/><path fill="#e81313" d="M864 0L575-490l-121 84V0H173v-1484h281v850l386-448h302L762-660 1171 0H864" id="aL"/><g id="m"><use transform="matrix(0.006510416666666667,0,0,0.006510416666666667,0,0)" xlink:href="#aI"/><use transform="matrix(0.006510416666666667,0,0,0.006510416666666667,8.001302083333334,0)" xlink:href="#aJ"/><use transform="matrix(0.006510416666666667,0,0,0.006510416666666667,16.002604166666668,0)" xlink:href="#aK"/><use transform="matrix(0.006510416666666667,0,0,0.006510416666666667,24.00390625,0)" xlink:href="#aL"/></g><path fill="#e81313" d="M648-963c-190 6-283 138-283 336V0H185v-1484h181c-2 197 6 404-9 587h3c62-120 159-205 339-205 242 0 351 135 350 381V0H868v-695c1-168-57-273-220-268" id="aM"/><path fill="#e81313" d="M706-1102c241 0 344 136 343 381V0H868v-695c1-168-57-273-220-268-190 6-283 138-283 336V0H185c-3-360 6-732-6-1082h170c4 54 7 126 8 185h3c63-121 164-204 346-205" id="aN"/><g id="n"><use transform="matrix(0.006510416666666667,0,0,0.006510416666666667,0,0)" xlink:href="#ax"/><use transform="matrix(0.006510416666666667,0,0,0.006510416666666667,8.001302083333334,0)" xlink:href="#aM"/><use transform="matrix(0.006510416666666667,0,0,0.006510416666666667,16.002604166666668,0)" xlink:href="#aB"/><use transform="matrix(0.006510416666666667,0,0,0.006510416666666667,24.00390625,0)" xlink:href="#aN"/></g><use transform="matrix(0.006510416666666667,0,0,0.006510416666666667,0,0)" xlink:href="#aE" id="o"/><g id="p"><use transform="matrix(0.006510416666666667,0,0,0.006510416666666667,0,0)" xlink:href="#aD"/><use transform="matrix(0.006510416666666667,0,0,0.006510416666666667,8.001302083333334,0)" xlink:href="#aE"/><use transform="matrix(0.006510416666666667,0,0,0.006510416666666667,16.002604166666668,0)" xlink:href="#aF"/><use transform="matrix(0.006510416666666667,0,0,0.006510416666666667,24.00390625,0)" xlink:href="#aG"/><use transform="matrix(0.006510416666666667,0,0,0.006510416666666667,32.005208333333336,0)" xlink:href="#aB"/><use transform="matrix(0.006510416666666667,0,0,0.006510416666666667,40.00651041666667,0)" xlink:href="#aA"/></g><path fill="#e81313" d="M715 0H502L69-1082h202c94 253 197 500 285 758 19 57 36 126 52 183 96-335 234-626 350-941h201" id="aO"/><g id="q"><use transform="matrix(0.006510416666666667,0,0,0.006510416666666667,0,0)" xlink:href="#aE"/><use transform="matrix(0.006510416666666667,0,0,0.006510416666666667,8.001302083333334,0)" xlink:href="#ay"/><use transform="matrix(0.006510416666666667,0,0,0.006510416666666667,16.002604166666668,0)" xlink:href="#ay"/><use transform="matrix(0.006510416666666667,0,0,0.006510416666666667,24.00390625,0)" xlink:href="#az"/><use transform="matrix(0.006510416666666667,0,0,0.006510416666666667,32.005208333333336,0)" xlink:href="#aO"/><use transform="matrix(0.006510416666666667,0,0,0.006510416666666667,40.00651041666667,0)" xlink:href="#aB"/><use transform="matrix(0.006510416666666667,0,0,0.006510416666666667,48.00781250000001,0)" xlink:href="#aC"/></g><path fill="#e81313" d="M839-1335c-182-6-269 67-259 253h491v142H580V0H400v-940H138v-142h262c-15-293 132-408 418-402 94 2 200 7 281 21v145c-75-10-177-14-260-17" id="aP"/><path fill="#e81313" d="M904-1102c199 0 220 177 220 381V0H956v-686c-3-114 0-215-60-264-70-33-125-4-158 71-26 56-39 140-39 252V0H531v-686c-3-114-1-215-61-264-78-41-136 24-157 84-24 69-39 159-39 259V0H105c-3-360 6-732-6-1082h149c6 50 3 123 8 175 36-100 83-195 216-195 135 0 166 79 196 196 42-105 93-196 236-196" id="aQ"/><g id="r"><use transform="matrix(0.006510416666666667,0,0,0.006510416666666667,0,0)" xlink:href="#aP"/><use transform="matrix(0.006510416666666667,0,0,0.006510416666666667,8.001302083333334,0)" xlink:href="#ay"/><use transform="matrix(0.006510416666666667,0,0,0.006510416666666667,16.002604166666668,0)" xlink:href="#aH"/><use transform="matrix(0.006510416666666667,0,0,0.006510416666666667,24.00390625,0)" xlink:href="#aQ"/></g><g id="s"><use transform="matrix(0.006510416666666667,0,0,0.006510416666666667,0,0)" xlink:href="#aA"/><use transform="matrix(0.006510416666666667,0,0,0.006510416666666667,8.001302083333334,0)" xlink:href="#aM"/><use transform="matrix(0.006510416666666667,0,0,0.006510416666666667,16.002604166666668,0)" xlink:href="#aB"/></g><path fill="#e81313" d="M528 20c-247 0-343-132-343-381v-721h180v686c-4 177 45 284 224 277 194-8 279-136 279-336v-627h181c3 360-6 732 6 1082H885c-4-54-7-126-8-185h-3C809-64 714 20 528 20" id="aR"/><g id="t"><use transform="matrix(0.006510416666666667,0,0,0.006510416666666667,0,0)" xlink:href="#aA"/><use transform="matrix(0.006510416666666667,0,0,0.006510416666666667,8.001302083333334,0)" xlink:href="#aR"/><use transform="matrix(0.006510416666666667,0,0,0.006510416666666667,16.002604166666668,0)" xlink:href="#aN"/></g><path fill="#e81313" d="M865-914c-3-187-2-380-2-570h180v1261c0 76 1 155 6 223H877c-8-49-9-116-10-174h-5C801-44 708 26 530 26c-135 0-234-46-297-139s-95-232-95-419c0-377 131-566 392-566 176 0 271 63 335 184zm-286-51c-222 0-255 197-255 427 0 229 31 425 253 425 237 0 286-195 286-441 0-238-52-411-284-411" id="aS"/><g id="u"><use transform="matrix(0.006510416666666667,0,0,0.006510416666666667,0,0)" xlink:href="#aS"/><use transform="matrix(0.006510416666666667,0,0,0.006510416666666667,8.001302083333334,0)" xlink:href="#aB"/><use transform="matrix(0.006510416666666667,0,0,0.006510416666666667,16.002604166666668,0)" xlink:href="#aO"/></g><path fill="#008a0e" d="M839-1102c70 0 148 7 206 17v167c-112-18-268-36-363 15-129 69-208 203-208 395V0H294c-10-367 32-789-52-1082h171c21 75 41 161 48 250h5c67-152 152-270 373-270" id="aT"/><path fill="#008a0e" d="M617-1102c355 0 481 238 477 599H322c5 222 84 388 301 388 144 0 244-59 284-166l158 45C1002-72 854 20 623 20c-342 0-490-220-490-568 0-346 151-554 484-554zm291 461c-18-192-90-328-289-328-194 0-287 128-295 328h584" id="aU"/><path fill="#008a0e" d="M1000-272c3 95 12 159 101 161 21 0 41-3 59-7V-6c-44 10-86 16-139 16-141 2-191-84-197-217h-6C748-76 648 20 446 20c-207 0-318-120-318-322 0-266 194-348 454-354l236-4c12-191-40-305-222-305-140 0-220 47-232 172l-188-17c33-204 181-292 423-292 255 0 401 118 401 364v466zm-683-27c0 109 63 184 175 182 166-3 259-96 306-217 24-65 20-120 20-200-232 7-501-28-501 235" id="aV"/><path fill="#008a0e" d="M865-914c-3-187-2-380-2-570h180v1261c0 76 1 155 6 223H877c-8-49-9-116-10-174h-5C801-44 708 26 530 26c-135 0-234-46-297-139s-95-232-95-419c0-377 131-566 392-566 176 0 271 63 335 184zm-286-51c-222 0-255 197-255 427 0 229 31 425 253 425 237 0 286-195 286-441 0-238-52-411-284-411" id="aW"/><path fill="#008a0e" d="M873-819c-18-114-119-146-250-146-163 0-245 50-245 151 0 151 170 148 294 185 182 54 388 94 388 320 0 240-189 325-439 329-245 4-410-69-454-268l159-31c24 133 136 168 295 165 144-2 270-31 270-171 0-164-195-160-331-202-167-52-350-87-350-299 0-218 173-315 413-313 220 2 373 77 412 260" id="aX"/><g id="v"><use transform="matrix(0.006510416666666667,0,0,0.006510416666666667,0,0)" xlink:href="#aT"/><use transform="matrix(0.006510416666666667,0,0,0.006510416666666667,8.001302083333334,0)" xlink:href="#aU"/><use transform="matrix(0.006510416666666667,0,0,0.006510416666666667,16.002604166666668,0)" xlink:href="#aV"/><use transform="matrix(0.006510416666666667,0,0,0.006510416666666667,24.00390625,0)" xlink:href="#aW"/><use transform="matrix(0.006510416666666667,0,0,0.006510416666666667,32.005208333333336,0)" xlink:href="#aX"/></g><path fill="#008a0e" d="M698-1104c312 3 392 244 392 558 0 315-82 566-392 566-169 0-277-65-331-184h-5c8 188 2 394 4 589H185V-858c0-76-1-156-6-224h175c6 52 9 120 10 178h4c58-122 150-202 330-200zm-49 991c225 0 255-203 255-433 0-225-32-419-253-419-236 0-285 192-285 441 0 237 53 411 283 411" id="aY"/><path fill="#008a0e" d="M631 20c-350 0-501-215-501-562 0-355 162-560 502-560 250 0 399 118 446 323l-192 14c-23-124-109-196-262-196-242 0-305 171-305 415 1 245 61 427 304 427 151 0 248-77 267-215l190 12C1039-107 883 20 631 20" id="aZ"/><path fill="#008a0e" d="M914 0L548-499l-132 98V0H236v-1484h180v927l475-525h211L663-617 1125 0H914" id="ba"/><path fill="#008a0e" d="M682 16c-209 0-323-80-324-285v-671H190v-142h170l58-282h120v282h432v142H538v652c2 114 60 155 182 155 106 0 209-16 297-34v137C921-4 806 16 682 16" id="bb"/><g id="w"><use transform="matrix(0.006510416666666667,0,0,0.006510416666666667,0,0)" xlink:href="#aY"/><use transform="matrix(0.006510416666666667,0,0,0.006510416666666667,8.001302083333334,0)" xlink:href="#aV"/><use transform="matrix(0.006510416666666667,0,0,0.006510416666666667,16.002604166666668,0)" xlink:href="#aZ"/><use transform="matrix(0.006510416666666667,0,0,0.006510416666666667,24.00390625,0)" xlink:href="#ba"/><use transform="matrix(0.006510416666666667,0,0,0.006510416666666667,32.005208333333336,0)" xlink:href="#aU"/><use transform="matrix(0.006510416666666667,0,0,0.006510416666666667,40.00651041666667,0)" xlink:href="#bb"/></g><path fill="#008a0e" d="M839-1335c-182-6-269 67-259 253h491v142H580V0H400v-940H138v-142h262c-15-293 132-408 418-402 94 2 200 7 281 21v145c-75-10-177-14-260-17" id="bc"/><path fill="#008a0e" d="M615-1102c343 0 484 203 482 560-1 347-147 562-488 562-336 0-475-219-479-562-4-349 156-560 485-560zm-8 989c240 0 301-180 301-429 0-245-55-427-290-427-236 0-299 181-299 427 0 243 61 429 288 429" id="bd"/><path fill="#008a0e" d="M904-1102c199 0 220 177 220 381V0H956v-686c-3-114 0-215-60-264-70-33-125-4-158 71-26 56-39 140-39 252V0H531v-686c-3-114-1-215-61-264-78-41-136 24-157 84-24 69-39 159-39 259V0H105c-3-360 6-732-6-1082h149c6 50 3 123 8 175 36-100 83-195 216-195 135 0 166 79 196 196 42-105 93-196 236-196" id="be"/><g id="x"><use transform="matrix(0.006510416666666667,0,0,0.006510416666666667,0,0)" xlink:href="#bc"/><use transform="matrix(0.006510416666666667,0,0,0.006510416666666667,8.001302083333334,0)" xlink:href="#aT"/><use transform="matrix(0.006510416666666667,0,0,0.006510416666666667,16.002604166666668,0)" xlink:href="#bd"/><use transform="matrix(0.006510416666666667,0,0,0.006510416666666667,24.00390625,0)" xlink:href="#be"/></g><path fill="#008a0e" d="M875-1102c70 0 148 7 206 17v237c-110-17-267-37-359 15-123 69-192 207-192 395V0H250c-10-367 32-789-52-1082h271c19 69 36 149 46 228h4c52-151 151-250 356-248" id="bf"/><path fill="#008a0e" d="M429-1484c1 190-1 388 0 572 54-116 155-191 317-191 300 0 386 257 386 563 0 241-73 429-226 518-49 28-106 42-169 42-162 0-251-81-306-196h-4c-1 59-5 127-15 176H140c4-67 9-153 8-236v-1248h281zm66 648c-93 114-92 466 1 585 35 45 77 79 142 79 64 0 112-31 148-92 69-115 68-440-2-561-39-68-131-111-221-70-25 11-46 32-68 59" id="bg"/><path fill="#008a0e" d="M794-190h353V0H118v-190h395v-1104H223v-190h571v1294" id="bh"/><path fill="#008a0e" d="M864 0L575-490l-121 84V0H173v-1484h281v850l386-448h302L762-660 1171 0H864" id="bi"/><g id="y"><use transform="matrix(0.006510416666666667,0,0,0.006510416666666667,0,0)" xlink:href="#bf"/><use transform="matrix(0.006510416666666667,0,0,0.006510416666666667,8.001302083333334,0)" xlink:href="#bg"/><use transform="matrix(0.006510416666666667,0,0,0.006510416666666667,16.002604166666668,0)" xlink:href="#bh"/><use transform="matrix(0.006510416666666667,0,0,0.006510416666666667,24.00390625,0)" xlink:href="#bi"/></g><g id="z"><use transform="matrix(0.006510416666666667,0,0,0.006510416666666667,0,0)" xlink:href="#aV"/><use transform="matrix(0.006510416666666667,0,0,0.006510416666666667,8.001302083333334,0)" xlink:href="#bb"/></g><path fill="#008a0e" d="M424-1484c-2 206 5 424-8 618h4c67-145 160-234 348-236 251-3 335 167 336 416V0H824v-621c0-150-23-276-173-270-163 7-227 142-227 312V0H143v-1484h281" id="bj"/><path fill="#008a0e" d="M138 0v-199l570-680H179v-203h849v201L461-205h616V0H138" id="bk"/><g id="A"><use transform="matrix(0.006510416666666667,0,0,0.006510416666666667,0,0)" xlink:href="#bj"/><use transform="matrix(0.006510416666666667,0,0,0.006510416666666667,8.001302083333334,0)" xlink:href="#bk"/></g><path fill="#008a0e" d="M530 26c-303-6-392-228-392-558 0-187 33-329 98-424s162-142 293-142c178 0 273 69 334 184 1-56 3-122 12-169h175c-6 88-6 180-6 282V425H863c1-202-4-411 4-607h-2C805-59 713 29 530 26zm47-139c234 0 286-193 286-441 0-238-55-411-284-411-223 0-255 198-255 427 0 227 33 425 253 425" id="bl"/><path fill="#008a0e" d="M528 20c-247 0-343-132-343-381v-721h180v686c-4 177 45 284 224 277 194-8 279-136 279-336v-627h181c3 360-6 732 6 1082H885c-4-54-7-126-8-185h-3C809-64 714 20 528 20" id="bm"/><path fill="#008a0e" d="M706-1102c241 0 344 136 343 381V0H868v-695c1-168-57-273-220-268-190 6-283 138-283 336V0H185c-3-360 6-732-6-1082h170c4 54 7 126 8 185h3c63-121 164-204 346-205" id="bn"/><path fill="#008a0e" d="M168 279c222 39 310-114 368-290L66-1082h192c120 299 249 590 362 896 115-301 235-597 351-896h190L705 0c-65 164-130 320-275 396-67 36-177 35-262 18V279" id="bo"/><g id="B"><use transform="matrix(0.006510416666666667,0,0,0.006510416666666667,0,0)" xlink:href="#bc"/><use transform="matrix(0.006510416666666667,0,0,0.006510416666666667,8.001302083333334,0)" xlink:href="#aT"/><use transform="matrix(0.006510416666666667,0,0,0.006510416666666667,16.002604166666668,0)" xlink:href="#aU"/><use transform="matrix(0.006510416666666667,0,0,0.006510416666666667,24.00390625,0)" xlink:href="#bl"/><use transform="matrix(0.006510416666666667,0,0,0.006510416666666667,32.005208333333336,0)" xlink:href="#bm"/><use transform="matrix(0.006510416666666667,0,0,0.006510416666666667,40.00651041666667,0)" xlink:href="#aU"/><use transform="matrix(0.006510416666666667,0,0,0.006510416666666667,48.00781250000001,0)" xlink:href="#bn"/><use transform="matrix(0.006510416666666667,0,0,0.006510416666666667,56.00911458333335,0)" xlink:href="#aZ"/><use transform="matrix(0.006510416666666667,0,0,0.006510416666666667,64.01041666666667,0)" xlink:href="#bo"/></g><g id="C"><use transform="matrix(0.006510416666666667,0,0,0.006510416666666667,0,0)" xlink:href="#aV"/><use transform="matrix(0.006510416666666667,0,0,0.006510416666666667,8.001302083333334,0)" xlink:href="#bn"/><use transform="matrix(0.006510416666666667,0,0,0.006510416666666667,16.002604166666668,0)" xlink:href="#aW"/></g><g id="D"><use transform="matrix(0.006510416666666667,0,0,0.006510416666666667,0,0)" xlink:href="#aX"/><use transform="matrix(0.006510416666666667,0,0,0.006510416666666667,8.001302083333334,0)" xlink:href="#aU"/><use transform="matrix(0.006510416666666667,0,0,0.006510416666666667,16.002604166666668,0)" xlink:href="#bn"/><use transform="matrix(0.006510416666666667,0,0,0.006510416666666667,24.00390625,0)" xlink:href="#aW"/><use transform="matrix(0.006510416666666667,0,0,0.006510416666666667,32.005208333333336,0)" xlink:href="#aX"/></g><path fill="#008a0e" d="M648-963c-190 6-283 138-283 336V0H185v-1484h181c-2 197 6 404-9 587h3c62-120 159-205 339-205 242 0 351 135 350 381V0H868v-695c1-168-57-273-220-268" id="bp"/><g id="E"><use transform="matrix(0.006510416666666667,0,0,0.006510416666666667,0,0)" xlink:href="#bb"/><use transform="matrix(0.006510416666666667,0,0,0.006510416666666667,8.001302083333334,0)" xlink:href="#bp"/><use transform="matrix(0.006510416666666667,0,0,0.006510416666666667,16.002604166666668,0)" xlink:href="#aU"/><use transform="matrix(0.006510416666666667,0,0,0.006510416666666667,24.00390625,0)" xlink:href="#be"/></g><g id="F"><use transform="matrix(0.006510416666666667,0,0,0.006510416666666667,0,0)" xlink:href="#bb"/><use transform="matrix(0.006510416666666667,0,0,0.006510416666666667,8.001302083333334,0)" xlink:href="#bd"/></g><g id="G"><use transform="matrix(0.006510416666666667,0,0,0.006510416666666667,0,0)" xlink:href="#bb"/><use transform="matrix(0.006510416666666667,0,0,0.006510416666666667,8.001302083333334,0)" xlink:href="#bm"/><use transform="matrix(0.006510416666666667,0,0,0.006510416666666667,16.002604166666668,0)" xlink:href="#bn"/></g><path fill="#008a0e" d="M715 0H502L69-1082h202c94 253 197 500 285 758 19 57 36 126 52 183 96-335 234-626 350-941h201" id="bq"/><g id="H"><use transform="matrix(0.006510416666666667,0,0,0.006510416666666667,0,0)" xlink:href="#aW"/><use transform="matrix(0.006510416666666667,0,0,0.006510416666666667,8.001302083333334,0)" xlink:href="#aU"/><use transform="matrix(0.006510416666666667,0,0,0.006510416666666667,16.002604166666668,0)" xlink:href="#bq"/></g><path fill="#3a414a" d="M1000-272c3 95 12 159 101 161 21 0 41-3 59-7V-6c-44 10-86 16-139 16-141 2-191-84-197-217h-6C748-76 648 20 446 20c-207 0-318-120-318-322 0-266 194-348 454-354l236-4c12-191-40-305-222-305-140 0-220 47-232 172l-188-17c33-204 181-292 423-292 255 0 401 118 401 364v466zm-683-27c0 109 63 184 175 182 166-3 259-96 306-217 24-65 20-120 20-200-232 7-501-28-501 235" id="br"/><path fill="#3a414a" d="M865-914c-3-187-2-380-2-570h180v1261c0 76 1 155 6 223H877c-8-49-9-116-10-174h-5C801-44 708 26 530 26c-135 0-234-46-297-139s-95-232-95-419c0-377 131-566 392-566 176 0 271 63 335 184zm-286-51c-222 0-255 197-255 427 0 229 31 425 253 425 237 0 286-195 286-441 0-238-52-411-284-411" id="bs"/><path fill="#3a414a" d="M839-1102c70 0 148 7 206 17v167c-112-18-268-36-363 15-129 69-208 203-208 395V0H294c-10-367 32-789-52-1082h171c21 75 41 161 48 250h5c67-152 152-270 373-270" id="bt"/><path fill="#3a414a" d="M496 0v-299h235V0H496zm0-783v-299h235v299H496" id="bu"/><g id="I"><use transform="matrix(0.007595486111111112,0,0,0.007595486111111112,0,0)" xlink:href="#br"/><use transform="matrix(0.007595486111111112,0,0,0.007595486111111112,9.334852430555557,0)" xlink:href="#bs"/><use transform="matrix(0.007595486111111112,0,0,0.007595486111111112,18.669704861111114,0)" xlink:href="#bs"/><use transform="matrix(0.007595486111111112,0,0,0.007595486111111112,28.00455729166667,0)" xlink:href="#bt"/><use transform="matrix(0.007595486111111112,0,0,0.007595486111111112,37.33940972222223,0)" xlink:href="#bu"/></g><path fill="#3a414a" d="M148-1120c216-7 379-89 463-229h166v1204h353V0H157v-145h439v-1021c-79 124-254 184-448 194v-148" id="bv"/><path fill="#3a414a" d="M1065-1013c47 164 49 500-1 665C999-130 875 20 611 20c-377 0-484-300-487-695-2-245 41-425 141-551 77-98 191-144 352-144 261 0 386 140 448 357zM741-155c199-92 203-504 159-785-26-168-96-284-283-284-281 0-308 256-311 549-2 181 18 324 80 428 46 77 115 118 227 120 47 0 90-10 128-28zM496-555v-249h235v249H496" id="bw"/><path fill="#3a414a" d="M496 0v-299h235V0H496" id="bx"/><path fill="#3a414a" d="M114 20l821-1504h178L296 20H114" id="by"/><path fill="#3a414a" d="M1060-1016c0 191-128 285-295 323v4c154 18 262 91 313 209 14 35 21 72 21 110 0 277-194 390-478 390-292 0-457-129-493-382l186-17c24 161 121 250 307 250 172 1 298-80 291-247-8-208-220-239-446-233v-156c217 9 409-34 409-232 0-152-102-225-264-225-159 0-264 88-278 233l-181-14c33-239 196-367 461-367 264 0 447 102 447 354" id="bz"/><path fill="#3a414a" d="M611-1370c266 0 451 106 451 368 0 147-77 243-154 327-132 144-316 255-451 395-42 44-75 87-96 134h723V0H144v-117c124-264 387-411 582-603 73-72 151-147 151-271 0-161-104-231-266-231-163 0-249 90-268 238l-184-17c35-233 185-369 452-369" id="bA"/><g id="J"><use transform="matrix(0.007595486111111112,0,0,0.007595486111111112,0,0)" xlink:href="#bv"/><use transform="matrix(0.007595486111111112,0,0,0.007595486111111112,9.334852430555557,0)" xlink:href="#bw"/><use transform="matrix(0.007595486111111112,0,0,0.007595486111111112,18.669704861111114,0)" xlink:href="#bx"/><use transform="matrix(0.007595486111111112,0,0,0.007595486111111112,28.00455729166667,0)" xlink:href="#bw"/><use transform="matrix(0.007595486111111112,0,0,0.007595486111111112,37.33940972222223,0)" xlink:href="#bx"/><use transform="matrix(0.007595486111111112,0,0,0.007595486111111112,46.674262152777786,0)" xlink:href="#bw"/><use transform="matrix(0.007595486111111112,0,0,0.007595486111111112,56.00911458333334,0)" xlink:href="#bx"/><use transform="matrix(0.007595486111111112,0,0,0.007595486111111112,65.3439670138889,0)" xlink:href="#bv"/><use transform="matrix(0.007595486111111112,0,0,0.007595486111111112,74.67881944444446,0)" xlink:href="#by"/><use transform="matrix(0.007595486111111112,0,0,0.007595486111111112,84.01367187500001,0)" xlink:href="#bz"/><use transform="matrix(0.007595486111111112,0,0,0.007595486111111112,93.34852430555557,0)" xlink:href="#bA"/></g><path fill="#3a414a" d="M698-1104c312 3 392 244 392 558 0 315-82 566-392 566-169 0-277-65-331-184h-5c8 188 2 394 4 589H185V-858c0-76-1-156-6-224h175c6 52 9 120 10 178h4c58-122 150-202 330-200zm-49 991c225 0 255-203 255-433 0-225-32-419-253-419-236 0-285 192-285 441 0 237 53 411 283 411" id="bB"/><path fill="#3a414a" d="M617-1102c355 0 481 238 477 599H322c5 222 84 388 301 388 144 0 244-59 284-166l158 45C1002-72 854 20 623 20c-342 0-490-220-490-568 0-346 151-554 484-554zm291 461c-18-192-90-328-289-328-194 0-287 128-295 328h584" id="bC"/><g id="K"><use transform="matrix(0.007595486111111112,0,0,0.007595486111111112,0,0)" xlink:href="#bB"/><use transform="matrix(0.007595486111111112,0,0,0.007595486111111112,9.334852430555557,0)" xlink:href="#bC"/><use transform="matrix(0.007595486111111112,0,0,0.007595486111111112,18.669704861111114,0)" xlink:href="#bC"/><use transform="matrix(0.007595486111111112,0,0,0.007595486111111112,28.00455729166667,0)" xlink:href="#bt"/><use transform="matrix(0.007595486111111112,0,0,0.007595486111111112,37.33940972222223,0)" xlink:href="#bu"/></g><g id="L"><use transform="matrix(0.007595486111111112,0,0,0.007595486111111112,0,0)" xlink:href="#bv"/><use transform="matrix(0.007595486111111112,0,0,0.007595486111111112,9.334852430555557,0)" xlink:href="#bw"/><use transform="matrix(0.007595486111111112,0,0,0.007595486111111112,18.669704861111114,0)" xlink:href="#bx"/><use transform="matrix(0.007595486111111112,0,0,0.007595486111111112,28.00455729166667,0)" xlink:href="#bw"/><use transform="matrix(0.007595486111111112,0,0,0.007595486111111112,37.33940972222223,0)" xlink:href="#bx"/><use transform="matrix(0.007595486111111112,0,0,0.007595486111111112,46.674262152777786,0)" xlink:href="#bw"/><use transform="matrix(0.007595486111111112,0,0,0.007595486111111112,56.00911458333334,0)" xlink:href="#bx"/><use transform="matrix(0.007595486111111112,0,0,0.007595486111111112,65.3439670138889,0)" xlink:href="#bA"/><use transform="matrix(0.007595486111111112,0,0,0.007595486111111112,74.67881944444446,0)" xlink:href="#by"/><use transform="matrix(0.007595486111111112,0,0,0.007595486111111112,84.01367187500001,0)" xlink:href="#bz"/><use transform="matrix(0.007595486111111112,0,0,0.007595486111111112,93.34852430555557,0)" xlink:href="#bA"/></g><g id="M"><use transform="matrix(0.007595486111111112,0,0,0.007595486111111112,0,0)" xlink:href="#bv"/><use transform="matrix(0.007595486111111112,0,0,0.007595486111111112,9.334852430555557,0)" xlink:href="#bw"/><use transform="matrix(0.007595486111111112,0,0,0.007595486111111112,18.669704861111114,0)" xlink:href="#bx"/><use transform="matrix(0.007595486111111112,0,0,0.007595486111111112,28.00455729166667,0)" xlink:href="#bw"/><use transform="matrix(0.007595486111111112,0,0,0.007595486111111112,37.33940972222223,0)" xlink:href="#bx"/><use transform="matrix(0.007595486111111112,0,0,0.007595486111111112,46.674262152777786,0)" xlink:href="#bw"/><use transform="matrix(0.007595486111111112,0,0,0.007595486111111112,56.00911458333334,0)" xlink:href="#bx"/><use transform="matrix(0.007595486111111112,0,0,0.007595486111111112,65.3439670138889,0)" xlink:href="#bA"/><use transform="matrix(0.007595486111111112,0,0,0.007595486111111112,74.67881944444446,0)" xlink:href="#by"/><use transform="matrix(0.007595486111111112,0,0,0.007595486111111112,84.01367187500001,0)" xlink:href="#bz"/><use transform="matrix(0.007595486111111112,0,0,0.007595486111111112,93.34852430555557,0)" xlink:href="#bA"/></g><g id="N"><use transform="matrix(0.007595486111111112,0,0,0.007595486111111112,0,0)" xlink:href="#bv"/><use transform="matrix(0.007595486111111112,0,0,0.007595486111111112,9.334852430555557,0)" xlink:href="#bw"/><use transform="matrix(0.007595486111111112,0,0,0.007595486111111112,18.669704861111114,0)" xlink:href="#bx"/><use transform="matrix(0.007595486111111112,0,0,0.007595486111111112,28.00455729166667,0)" xlink:href="#bw"/><use transform="matrix(0.007595486111111112,0,0,0.007595486111111112,37.33940972222223,0)" xlink:href="#bx"/><use transform="matrix(0.007595486111111112,0,0,0.007595486111111112,46.674262152777786,0)" xlink:href="#bw"/><use transform="matrix(0.007595486111111112,0,0,0.007595486111111112,56.00911458333334,0)" xlink:href="#bx"/><use transform="matrix(0.007595486111111112,0,0,0.007595486111111112,65.3439670138889,0)" xlink:href="#bv"/><use transform="matrix(0.007595486111111112,0,0,0.007595486111111112,74.67881944444446,0)" xlink:href="#by"/><use transform="matrix(0.007595486111111112,0,0,0.007595486111111112,84.01367187500001,0)" xlink:href="#bz"/><use transform="matrix(0.007595486111111112,0,0,0.007595486111111112,93.34852430555557,0)" xlink:href="#bA"/></g><path fill="#3a414a" d="M1018 0H814c-67-224-138-444-200-673C552-442 476-224 407 0H204L21-1082h178c43 310 105 601 126 933 54-225 128-425 193-638h193c63 212 134 415 185 638 22-336 90-622 136-933h176" id="bD"/><path fill="#3a414a" d="M365-904c58-129 161-200 334-200 130 0 228 46 293 138s98 233 98 420c0 189-34 331-102 425S824 20 698 20c-170 0-275-64-336-184 0 55-3 116-9 164H179c5-68 6-147 6-223v-1261h180c-2 193 4 394-4 580h4zm283 791c221 0 256-197 256-427 0-229-34-425-254-425-236 0-285 195-285 441 0 237 53 411 283 411" id="bE"/><path fill="#3a414a" d="M736-142h380V0H134v-142h422v-1200H267v-142h469v1342" id="bF"/><path fill="#3a414a" d="M914 0L548-499l-132 98V0H236v-1484h180v927l475-525h211L663-617 1125 0H914" id="bG"/><g id="O"><use transform="matrix(0.007595486111111112,0,0,0.007595486111111112,0,0)" xlink:href="#bD"/><use transform="matrix(0.007595486111111112,0,0,0.007595486111111112,9.334852430555557,0)" xlink:href="#bE"/><use transform="matrix(0.007595486111111112,0,0,0.007595486111111112,18.669704861111114,0)" xlink:href="#bF"/><use transform="matrix(0.007595486111111112,0,0,0.007595486111111112,28.00455729166667,0)" xlink:href="#bG"/><use transform="matrix(0.007595486111111112,0,0,0.007595486111111112,37.33940972222223,0)" xlink:href="#bu"/></g><use transform="matrix(0.007595486111111112,0,0,0.007595486111111112,0,0)" xlink:href="#bw" id="P"/><g id="Q"><use transform="matrix(0.007595486111111112,0,0,0.007595486111111112,0,0)" xlink:href="#bt"/><use transform="matrix(0.007595486111111112,0,0,0.007595486111111112,9.334852430555557,0)" xlink:href="#bE"/><use transform="matrix(0.007595486111111112,0,0,0.007595486111111112,18.669704861111114,0)" xlink:href="#bF"/><use transform="matrix(0.007595486111111112,0,0,0.007595486111111112,28.00455729166667,0)" xlink:href="#bG"/><use transform="matrix(0.007595486111111112,0,0,0.007595486111111112,37.33940972222223,0)" xlink:href="#bu"/></g><use transform="matrix(0.007595486111111112,0,0,0.007595486111111112,0,0)" xlink:href="#bv" id="R"/><use transform="matrix(0.007595486111111112,0,0,0.007595486111111112,0,0)" xlink:href="#bv" id="S"/><use transform="matrix(0.007595486111111112,0,0,0.007595486111111112,0,0)" xlink:href="#bw" id="T"/><path fill="#3a414a" d="M615-1102c343 0 484 203 482 560-1 347-147 562-488 562-336 0-475-219-479-562-4-349 156-560 485-560zm-8 989c240 0 301-180 301-429 0-245-55-427-290-427-236 0-299 181-299 427 0 243 61 429 288 429" id="bH"/><path fill="#3a414a" d="M873-819c-18-114-119-146-250-146-163 0-245 50-245 151 0 151 170 148 294 185 182 54 388 94 388 320 0 240-189 325-439 329-245 4-410-69-454-268l159-31c24 133 136 168 295 165 144-2 270-31 270-171 0-164-195-160-331-202-167-52-350-87-350-299 0-218 173-315 413-313 220 2 373 77 412 260" id="bI"/><g id="U"><use transform="matrix(0.008680555555555556,0,0,0.008680555555555556,0,0)" xlink:href="#bB"/><use transform="matrix(0.008680555555555556,0,0,0.008680555555555556,10.668402777777779,0)" xlink:href="#bH"/><use transform="matrix(0.008680555555555556,0,0,0.008680555555555556,21.336805555555557,0)" xlink:href="#bI"/><use transform="matrix(0.008680555555555556,0,0,0.008680555555555556,32.005208333333336,0)" xlink:href="#bI"/><use transform="matrix(0.008680555555555556,0,0,0.008680555555555556,42.673611111111114,0)" xlink:href="#bC"/></g><path fill="#3a414a" d="M682 16c-209 0-323-80-324-285v-671H190v-142h170l58-282h120v282h432v142H538v652c2 114 60 155 182 155 106 0 209-16 297-34v137C921-4 806 16 682 16" id="bJ"/><path fill="#3a414a" d="M528 20c-247 0-343-132-343-381v-721h180v686c-4 177 45 284 224 277 194-8 279-136 279-336v-627h181c3 360-6 732 6 1082H885c-4-54-7-126-8-185h-3C809-64 714 20 528 20" id="bK"/><path fill="#3a414a" d="M706-1102c241 0 344 136 343 381V0H868v-695c1-168-57-273-220-268-190 6-283 138-283 336V0H185c-3-360 6-732-6-1082h170c4 54 7 126 8 185h3c63-121 164-204 346-205" id="bL"/><g id="V"><use transform="matrix(0.008680555555555556,0,0,0.008680555555555556,0,0)" xlink:href="#bJ"/><use transform="matrix(0.008680555555555556,0,0,0.008680555555555556,10.668402777777779,0)" xlink:href="#bK"/><use transform="matrix(0.008680555555555556,0,0,0.008680555555555556,21.336805555555557,0)" xlink:href="#bL"/></g><path fill="#3a414a" d="M1229 0H935l-92-330H387L295 0H0l443-1349h344zM615-1167c-46 213-110 412-166 615h332c-56-204-119-401-166-615" id="bM"/><path fill="#3a414a" d="M865-312c-44-312-23-686-28-1037h257V0H748L364-1010c44 304 24 668 28 1010H135v-1349h337" id="bN"/><path fill="#3a414a" d="M89 20l821-1504h228L321 20H89" id="bO"/><path fill="#3a414a" d="M774 0H438L31-1082h297c94 290 200 568 280 872 83-304 194-581 291-872h294" id="bP"/><path fill="#3a414a" d="M872-915c-35-112-84-223-220-223-91 0-156 41-204 116-89 137-87 550 2 688 51 79 116 122 209 122 150 0 197-126 240-244l273 52C1094-168 961 20 656 20 239 20 80-262 80-681c0-418 154-689 568-689 289 0 425 167 496 389" id="bQ"/><path fill="#3a414a" d="M157-1349h916v228H762v893h311V0H157v-228h311v-893H157v-228" id="bR"/><g id="W"><use transform="matrix(0.007595486111111112,0,0,0.007595486111111112,0,0)" xlink:href="#ag"/><use transform="matrix(0.007595486111111112,0,0,0.007595486111111112,9.334852430555557,0)" xlink:href="#bM"/><use transform="matrix(0.007595486111111112,0,0,0.007595486111111112,18.669704861111114,0)" xlink:href="#bN"/><use transform="matrix(0.007595486111111112,0,0,0.007595486111111112,28.00455729166667,0)" xlink:href="#bO"/><use transform="matrix(0.007595486111111112,0,0,0.007595486111111112,37.33940972222223,0)" xlink:href="#bP"/><use transform="matrix(0.007595486111111112,0,0,0.007595486111111112,46.674262152777786,0)" xlink:href="#ag"/><use transform="matrix(0.007595486111111112,0,0,0.007595486111111112,56.00911458333334,0)" xlink:href="#bQ"/><use transform="matrix(0.007595486111111112,0,0,0.007595486111111112,65.3439670138889,0)" xlink:href="#ag"/><use transform="matrix(0.007595486111111112,0,0,0.007595486111111112,74.67881944444446,0)" xlink:href="#bR"/><use transform="matrix(0.007595486111111112,0,0,0.007595486111111112,84.01367187500001,0)" xlink:href="#bO"/></g><path fill="#3a414a" d="M137 0v-1349h968v228H432v324h612v228H432v341h714V0H137" id="bS"/><path fill="#3a414a" d="M836-709c204 20 350 118 350 324C1186-112 992 0 719 0H137v-1349h525c258 3 443 87 443 339 0 176-107 269-269 301zM643-811c107 0 165-53 165-159 0-113-61-160-167-160H432v319h211zm46 592c128-1 201-59 200-191-1-128-80-183-207-183H432v374h257" id="bT"/><path fill="#3a414a" d="M1109-360C1066-122 902 20 624 20c-347 0-514-209-514-555 0-353 168-567 518-567 270 0 425 136 473 361l-283 14c-16-106-75-183-196-182-75 0-130 31-165 93s-52 152-52 270c0 249 74 374 221 374 120 0 188-82 201-201" id="bU"/><g id="X"><use transform="matrix(0.007595486111111112,0,0,0.007595486111111112,0,0)" xlink:href="#bS"/><use transform="matrix(0.007595486111111112,0,0,0.007595486111111112,9.334852430555557,0)" xlink:href="#bT"/><use transform="matrix(0.007595486111111112,0,0,0.007595486111111112,18.669704861111114,0)" xlink:href="#ag"/><use transform="matrix(0.007595486111111112,0,0,0.007595486111111112,28.00455729166667,0)" xlink:href="#bO"/><use transform="matrix(0.007595486111111112,0,0,0.007595486111111112,37.33940972222223,0)" xlink:href="#ak"/><use transform="matrix(0.007595486111111112,0,0,0.007595486111111112,46.674262152777786,0)" xlink:href="#ad"/><use transform="matrix(0.007595486111111112,0,0,0.007595486111111112,56.00911458333334,0)" xlink:href="#bU"/></g><g id="Y"><use transform="matrix(0.006510416666666667,0,0,0.006510416666666667,0,0)" xlink:href="#bE"/><use transform="matrix(0.006510416666666667,0,0,0.006510416666666667,8.001302083333334,0)" xlink:href="#bF"/><use transform="matrix(0.006510416666666667,0,0,0.006510416666666667,16.002604166666668,0)" xlink:href="#bG"/><use transform="matrix(0.006510416666666667,0,0,0.006510416666666667,24.00390625,0)" xlink:href="#bw"/></g><g id="Z"><use transform="matrix(0.006510416666666667,0,0,0.006510416666666667,0,0)" xlink:href="#bE"/><use transform="matrix(0.006510416666666667,0,0,0.006510416666666667,8.001302083333334,0)" xlink:href="#bF"/><use transform="matrix(0.006510416666666667,0,0,0.006510416666666667,16.002604166666668,0)" xlink:href="#bG"/><use transform="matrix(0.006510416666666667,0,0,0.006510416666666667,24.00390625,0)" xlink:href="#bv"/></g></defs></g></svg>